<?xml version="1.0" encoding="UTF-8" standalone="no"?>
<!DOCTYPE svg PUBLIC "-//W3C//DTD SVG 1.1//EN" "http://www.w3.org/Graphics/SVG/1.1/DTD/svg11.dtd">
<svg width="100%" height="100%" viewBox="0 0 104 67" version="1.1" xmlns="http://www.w3.org/2000/svg" xmlns:xlink="http://www.w3.org/1999/xlink" xml:space="preserve" xmlns:serif="http://www.serif.com/" style="fill-rule:evenodd;clip-rule:evenodd;stroke-linejoin:round;stroke-miterlimit:2;">
    <g id="arrow" transform="matrix(1,0,0,1,-219.372,-244.878)">
        <path d="M225.487,310.586C219.607,309.954 219.888,310.07 219.877,308.268C219.872,307.435 219.733,300.353 219.569,292.529C219.405,284.705 219.328,278.246 219.397,278.177C219.467,278.107 221.657,278.56 224.265,279.182C253.006,286.04 274.294,285.563 287.482,277.766C291.226,275.552 295.742,271.563 297.109,269.261C297.261,269.006 295.453,268.263 291.386,266.907C286.281,265.206 285.524,264.871 286.024,264.535C287.238,263.721 322.326,244.768 322.415,244.878C322.52,245.01 314.724,281.624 314.554,281.794C314.493,281.854 312.572,280.122 310.285,277.944C307.998,275.765 305.983,273.983 305.807,273.983C305.631,273.982 304.767,275.221 303.887,276.735C300.559,282.46 295.407,288.768 290.611,292.991C279.927,302.396 267.999,307.769 252.207,310.289C247.556,311.031 231.297,311.212 225.487,310.586Z" style="fill:white;fill-rule:nonzero;"/>
    </g>
</svg>
