<?xml version="1.0" encoding="UTF-8" standalone="no"?>
<!DOCTYPE svg PUBLIC "-//W3C//DTD SVG 1.1//EN" "http://www.w3.org/Graphics/SVG/1.1/DTD/svg11.dtd">
<svg width="100%" height="100%" viewBox="0 0 633 89" version="1.1" xmlns="http://www.w3.org/2000/svg" xmlns:xlink="http://www.w3.org/1999/xlink" xml:space="preserve" xmlns:serif="http://www.serif.com/" style="fill-rule:evenodd;clip-rule:evenodd;stroke-linejoin:round;stroke-miterlimit:2;">
    <g id="hamama" transform="matrix(1,0,0,1,-1.6466,-562.594)">
        <path d="M136.367,651.234L136.367,584.034L142.127,584.034L142.127,651.234L136.367,651.234ZM345.647,651.234L345.647,584.034L351.407,584.034L351.407,651.234L345.647,651.234ZM1.967,642.274L1.967,584.354L7.727,584.354L7.727,642.274L1.967,642.274ZM21.807,642.274L21.807,575.394L1.647,575.394L1.647,569.634L25.996,569.634L26.781,570.42L27.567,571.205L27.567,642.274L21.807,642.274ZM52.453,610.514L52.367,578.754L51.616,577.546C50.338,575.492 49.901,575.394 41.982,575.394L34.927,575.394L34.927,569.571L43.167,569.712C52.435,569.87 53.482,570.072 55.582,572.112C56.237,572.749 57.078,573.928 57.45,574.732C58.123,576.187 58.127,576.366 58.214,609.234L58.301,642.274L52.539,642.274L52.453,610.514ZM120.686,610.674C120.685,575.423 120.83,577.691 118.479,576.121C117.432,575.421 117.136,575.394 110.399,575.394L103.407,575.394L103.407,569.634L110.207,569.637C119.971,569.641 122.368,570.162 124.505,572.746C126.687,575.384 126.584,573.646 126.692,609.715L126.79,642.275L120.687,642.275L120.686,610.675L120.686,610.674ZM149.167,639.673L149.167,636.981L151.074,636.618C153.439,636.169 154.676,635.313 155.539,633.531C156.2,632.165 156.207,631.887 156.207,603.773L156.207,575.394L136.047,575.394L136.047,569.634L148.367,569.634C160.298,569.634 160.707,569.655 161.333,570.28C161.973,570.921 161.978,571.196 161.893,602.84L161.807,634.754L161.05,636.427C160.152,638.414 158.048,640.453 155.957,641.362C155.032,641.764 153.423,642.086 151.807,642.192L149.167,642.364L149.167,639.673ZM192.405,640.594C196.062,617.064 202.287,576.196 202.287,575.717C202.287,575.089 202.087,575.074 193.487,575.074L184.687,575.074L184.687,562.594L190.767,562.594L190.767,569.634L198.927,569.634C206.66,569.634 207.12,569.668 207.727,570.274C208.199,570.746 208.367,571.341 208.367,572.54C208.367,573.827 198.569,638.761 197.953,641.554C197.803,642.235 197.639,642.274 194.969,642.274L192.143,642.274L192.405,640.594ZM219.567,642.274L219.567,575.394L214.447,575.394L214.447,569.634L219.043,569.634C223.209,569.634 223.719,569.696 224.483,570.297L225.327,570.961L225.327,642.274L219.567,642.274ZM235.567,642.274L235.567,584.354L241.327,584.354L241.327,642.274L235.567,642.274ZM255.407,642.274L255.407,575.394L235.247,575.394L235.247,569.634L259.596,569.634L260.381,570.42L261.167,571.205L261.167,642.274L255.407,642.274ZM287.407,639.554L287.407,636.834L290.432,636.834C293.818,636.834 294.884,636.499 295.388,635.273C295.629,634.689 295.708,625.455 295.65,604.834L295.567,575.234L292.127,575.143L288.687,575.053L288.687,569.634L294.434,569.634C299.935,569.634 300.21,569.664 300.834,570.335C301.482,571.03 301.487,571.267 301.485,603.855C301.484,626.877 301.377,637.056 301.129,637.954C300.621,639.786 299.665,640.98 298.158,641.664C297.072,642.158 296.036,642.261 292.127,642.267L287.407,642.274L287.407,639.554ZM314.607,642.274L314.607,575.394L309.167,575.394L309.167,569.634L313.981,569.634C318.666,569.634 318.817,569.655 319.581,570.42L320.367,571.205L320.367,642.274L314.607,642.274ZM358.127,639.594L358.127,636.834L359.007,636.831C360.696,636.827 362.441,636.114 363.604,634.951C364.249,634.306 364.935,633.206 365.13,632.506C365.375,631.622 365.484,622.696 365.485,603.313L365.488,575.393L345.328,575.393L345.328,569.633L357.648,569.633C369.541,569.633 369.99,569.655 370.608,570.273C371.239,570.904 371.248,571.34 371.248,602.055C371.248,635.861 371.292,634.953 369.499,637.762C367.757,640.491 364.795,642.002 360.768,642.214L358.128,642.353L358.128,639.593L358.127,639.594ZM384.367,642.274L384.367,575.394L379.247,575.394L379.247,569.634L383.843,569.634C388.009,569.634 388.519,569.696 389.283,570.297L390.127,570.961L390.127,642.274L384.367,642.274ZM434.287,642.274L434.287,575.394L417.967,575.394L417.967,569.634L430.607,569.634C445.489,569.634 444.527,569.391 444.527,573.154L444.527,575.394L440.047,575.394L440.047,642.274L434.287,642.274ZM457.481,641.554C457.758,640.357 467.567,576.255 467.567,575.643C467.567,575.112 466.985,575.074 458.767,575.074L449.967,575.074L449.967,562.594L456.047,562.594L456.047,569.634L464.145,569.634C470.195,569.634 472.385,569.737 472.801,570.041C474.091,570.985 473.914,572.541 468.55,607.234C465.72,625.538 463.321,640.91 463.22,641.394L463.036,642.274L460.175,642.274C457.372,642.274 457.318,642.26 457.481,641.554ZM497.007,642.274L497.007,584.354L502.767,584.354L502.767,642.274L497.007,642.274ZM516.847,642.274L516.847,575.394L496.687,575.394L496.687,569.634L508.946,569.634C520.842,569.634 521.227,569.654 521.906,570.287L522.607,570.939L522.607,642.274L516.847,642.274ZM531.088,641.394C531.168,640.91 532.261,627.338 533.516,611.234L535.799,581.954L537.043,579.936C538.456,577.642 538.461,577.619 537.798,576.338L537.31,575.394L530.287,575.394L530.287,569.634L539.237,569.634L540.24,571.634C540.791,572.734 541.3,573.697 541.37,573.773C541.44,573.849 542.07,573.316 542.77,572.588C543.469,571.86 544.727,570.861 545.564,570.369C546.957,569.55 547.359,569.474 550.287,569.474C552.732,569.474 553.728,569.606 554.512,570.035C556.164,570.938 557.739,572.784 558.505,574.716C559.208,576.488 559.221,576.814 559.436,597.154C559.555,608.506 559.67,623.302 559.69,630.034L559.727,642.274L546.287,642.274L546.287,636.834L554.042,636.834L553.829,608.434C553.694,590.411 553.493,579.475 553.277,578.505C552.668,575.758 550.231,574.248 547.736,575.071C546.465,575.491 544.311,577.711 542.635,580.331L541.426,582.222L539.22,611.528C538.007,627.646 537.013,641.158 537.011,641.554C537.007,642.25 536.904,642.274 533.975,642.274L530.943,642.274L531.088,641.394ZM567.923,641.554C567.983,641.158 569.063,627.586 570.324,611.394L572.616,581.954L573.851,579.962C575.251,577.704 575.267,577.63 574.598,576.338L574.11,575.394L567.407,575.394L567.407,569.616L576.185,569.794L577.07,571.554C577.557,572.522 578.009,573.458 578.074,573.634C578.139,573.81 578.978,573.216 579.938,572.314C582.667,569.75 583.365,569.474 587.112,569.474C590.143,569.474 590.431,569.532 591.903,570.443C592.829,571.015 593.828,571.996 594.347,572.843C596.149,575.783 596.115,575.142 596.373,610.043L596.612,642.274L583.087,642.274L583.087,636.834L590.86,636.834L590.633,608.114C590.493,590.312 590.282,578.916 590.079,578.137C589.447,575.711 586.879,574.298 584.52,575.076C583.241,575.498 580.816,578.069 579.296,580.614L578.225,582.407L576.02,611.781C574.807,627.936 573.813,641.406 573.811,641.714C573.807,642.207 573.449,642.274 570.811,642.274C567.886,642.274 567.818,642.257 567.923,641.554L567.923,641.554ZM607.407,608.834L607.407,575.394L603.887,575.394L603.887,569.585L615.327,569.716C622.878,569.803 627.16,569.975 627.923,570.224C629.952,570.884 631.59,572.331 632.572,574.331L633.487,576.194L633.661,642.274L627.887,642.274L627.88,610.834C627.873,580.523 627.85,579.346 627.258,578.041C626.166,575.636 625.406,575.397 618.847,575.395L613.167,575.395L613.167,642.275L607.407,642.275L607.407,608.835L607.407,608.834ZM71.087,608.354L71.087,575.394L65.967,575.394L65.967,569.634L70.621,569.634C75.136,569.634 75.299,569.658 76.061,570.42L76.847,571.205L76.847,608.354L71.087,608.354ZM89.647,608.354L89.647,575.394L84.527,575.394L84.527,569.634L89.123,569.634C93.289,569.634 93.799,569.696 94.563,570.297L95.407,570.961L95.407,608.354L89.647,608.354ZM274.287,608.354L274.287,575.394L268.847,575.394L268.847,569.634L273.647,569.634C277.876,569.634 278.516,569.704 279.034,570.221C279.568,570.756 279.64,571.699 279.833,580.701C279.95,586.142 280.046,594.59 280.046,599.474L280.047,608.354L274.287,608.354ZM403.567,608.354L403.567,575.394L398.447,575.394L398.447,569.634L403.101,569.634C407.616,569.634 407.779,569.658 408.541,570.42L409.327,571.205L409.327,608.354L403.567,608.354Z" style="fill:white;fill-rule:nonzero;"/>
    </g>
</svg>
