<?xml version="1.0" encoding="UTF-8" standalone="no"?>
<!DOCTYPE svg PUBLIC "-//W3C//DTD SVG 1.1//EN" "http://www.w3.org/Graphics/SVG/1.1/DTD/svg11.dtd">
<svg width="100%" height="100%" viewBox="0 0 640 194" version="1.1" xmlns="http://www.w3.org/2000/svg" xmlns:xlink="http://www.w3.org/1999/xlink" xml:space="preserve" xmlns:serif="http://www.serif.com/" style="fill-rule:evenodd;clip-rule:evenodd;stroke-linejoin:round;stroke-miterlimit:2;">
    <g id="new-path" transform="matrix(1,0,0,1,0.273403,-349.776)">
        <path d="M456.287,459.154L456.207,375.234L419.247,375.069L419.247,349.794L449.983,349.794C484.523,349.794 481.889,349.6 483.585,352.274L484.527,353.76L484.527,543.074L456.368,543.074L456.287,459.154ZM0.687,521.954L0.687,387.234L28.207,387.234L28.207,521.954L0.687,521.954ZM45.407,448.594L45.327,375.234L-0.273,375.07L-0.273,349.794L34.797,349.794C74.117,349.794 70.832,349.589 72.614,352.16L73.487,353.419L73.593,437.687L73.699,521.954L45.488,521.954L45.407,448.594ZM91.239,511.794C91.223,488.466 90.298,375.672 90.121,375.386C90.015,375.214 88.569,375.074 86.908,375.074L83.887,375.074L83.887,349.794L99.117,349.794C113.88,349.794 114.376,349.814 115.255,350.44C115.753,350.795 116.478,351.598 116.865,352.223L117.568,353.361L118.149,402.013C118.469,428.772 118.81,450.744 118.907,450.841C119.069,451.003 131.103,447.979 132.767,447.359L133.487,447.09L133.486,422.842C133.486,409.506 133.391,393.302 133.274,386.834L133.063,375.074L127.407,375.074L127.407,349.794L156.824,349.794L157.972,350.802C160.214,352.77 160.024,348.067 160.259,407.513C160.458,457.613 160.435,461.483 159.937,462.243C159.642,462.693 159.006,463.261 158.524,463.506C158.041,463.751 149.079,466.298 138.607,469.166C128.135,472.035 119.409,474.5 119.217,474.645C118.838,474.931 118.979,495.696 119.362,496.077C119.778,496.49 149.598,495.759 152.982,495.253C161.44,493.989 167.917,490.286 171.678,484.564C173.23,482.203 173.876,480.642 174.68,477.314C175.174,475.27 175.23,470.711 175.323,425.074L175.424,375.074L169.647,375.074L169.649,365.554C169.65,360.318 169.743,354.63 169.857,352.914L170.064,349.794L184.975,349.794C201.842,349.794 200.943,349.664 202.934,352.414L203.921,353.775L203.794,413.944C203.683,466.726 203.604,474.628 203.153,478.304C201.872,488.743 199.755,494.952 195.08,501.978C189.052,511.037 178.394,517.437 164.751,520.189C156.469,521.86 154.365,521.946 121.567,521.95L91.247,521.955L91.24,511.795L91.239,511.794ZM246.767,521.954L246.767,375.074L213.167,375.074L213.167,349.794L246.782,349.794C284.089,349.794 281.507,349.641 283.077,351.952L283.887,353.143L283.887,375.074L275.247,375.074L275.247,521.954L246.767,521.954ZM299.487,448.594L299.407,375.234L292.207,375.053L292.207,349.776L323.967,349.871C353.09,349.957 355.886,350.011 357.647,350.524C363.425,352.208 367.543,355.509 369.913,360.354C371.399,363.394 372.027,365.63 372.515,369.626C372.735,371.424 372.847,397.545 372.847,447.146L372.847,521.954L344.687,521.954L344.687,378.73L343.967,377.302C342.913,375.212 342.146,375.043 334.162,375.148L327.567,375.234L327.405,521.954L299.568,521.954L299.487,448.594ZM530.927,521.955L530.927,379.05L530.207,377.622C528.881,374.993 529.499,375.075 511.007,375.075L494.767,375.075L494.767,349.795L517.66,349.795C543.615,349.795 543.458,349.783 548.367,352.179C554.208,355.03 557.598,359.985 558.928,367.616C559.344,369.997 559.407,380.339 559.407,446.157L559.407,521.955L530.927,521.955ZM601.887,448.594L601.807,375.234L568.367,375.068L568.367,349.794L601.997,349.794C639.635,349.794 636.593,349.597 638.243,352.142L639.087,353.442L639.087,375.056L630.287,375.234L630.125,521.954L601.968,521.954L601.887,448.594Z" style="fill:white;fill-rule:nonzero;"/>
    </g>
</svg>
