<?xml version="1.0" encoding="UTF-8" standalone="no"?>
<!DOCTYPE svg PUBLIC "-//W3C//DTD SVG 1.1//EN" "http://www.w3.org/Graphics/SVG/1.1/DTD/svg11.dtd">
<svg width="100%" height="100%" viewBox="0 0 1832 998" version="1.1" xmlns="http://www.w3.org/2000/svg" xmlns:xlink="http://www.w3.org/1999/xlink" xml:space="preserve" xmlns:serif="http://www.serif.com/" style="fill-rule:evenodd;clip-rule:evenodd;stroke-linejoin:round;stroke-miterlimit:2;">
    <g transform="matrix(1,0,0,1,-932,0)">
        <g id="greenhouse" transform="matrix(-2.265516,0,0,2.265516,4366.457783,-714.294947)">
            <g id="arrow">
            </g>
            <g id="door" transform="matrix(-1,0,0,1,1332.41,322.243)">
                <path d="M524.288,358.526L524.277,212.43C524.062,194.558 517.338,183.194 506.7,175.744C482.499,188.846 472.081,209.606 471.33,235.736L471.34,392.158L524.288,358.526Z" style="fill:rgb(140,164,68);"/>
            </g>
            <g transform="matrix(-1,0,0,1,1332.41,314.489)">
                <path d="M327.965,92.153L472.028,2.867C472.387,2.645 475.412,0.546 476.402,0.827C477.392,0.546 480.417,2.645 480.776,2.867L624.839,91.428L624.839,368.356C624.839,369.727 623.727,370.839 622.356,370.839L521.019,370.839C519.648,370.839 518.536,369.727 518.536,368.356C518.536,368.356 518.537,220.592 518.537,220.328C518.013,207.495 514.17,197.698 507.013,190.762C499.82,183.79 489.458,179.743 476.401,177.984C463.347,179.743 452.985,183.79 445.791,190.762C438.639,197.693 434.797,207.482 434.268,220.301L434.268,353.649C434.268,354.573 433.755,355.421 432.936,355.849C432.936,355.849 416.204,364.6 409.182,368.605C408.03,369.261 406.853,370.001 406.635,370.14C406.178,370.584 405.56,370.839 404.909,370.839L330.448,370.839C329.077,370.839 327.965,369.727 327.965,368.356L327.965,92.153ZM537.543,359.356L570.843,326.055L604.987,359.356L537.543,359.356ZM347.9,359.275L381.961,326.055L410.544,354.639L402.536,358.563L347.9,359.275ZM613.356,351.477L576.535,315.565L576.535,225.925L613.356,225.925L613.356,351.477ZM339.448,225.925L376.269,225.925L376.269,315.565L339.448,351.477L339.448,225.925ZM565.051,315.607L530.019,350.639L530.019,225.925L565.051,225.925L565.051,315.607ZM422.785,225.925L422.785,347.595L421.086,348.482L387.753,315.597L387.753,225.925L422.785,225.925ZM565.051,148.996L565.051,214.442L529.601,214.442C528.083,200.806 523.038,190.302 515.004,182.516C507.062,174.818 496.07,169.745 482.231,167.275L482.223,148.996L565.051,148.996ZM387.753,214.442L387.753,148.996L470.581,148.996L470.573,167.275C456.734,169.745 445.742,174.818 437.8,182.516C429.757,190.31 424.71,200.829 423.2,214.442L387.753,214.442ZM576.535,146.249L613.356,108.811L613.356,214.442L576.535,214.442L576.535,146.249ZM339.448,108.811L376.269,146.249L376.269,214.442L339.448,214.442L339.448,108.811ZM393.017,137.512L469.483,27.895L470.477,137.512L393.017,137.512ZM482.327,137.512L483.321,27.895L559.787,137.512L482.327,137.512ZM571.58,134.347L495.696,25.564L609.903,96.023L571.58,134.347ZM342.901,96.023L457.108,25.564L381.224,134.347L342.901,96.023Z" style="fill:rgb(185,216,84);"/>
            </g>
        </g>
    </g>
    <g transform="matrix(2.265516,0,0,2.265516,415.861455,15.751762)">
        <path d="M315.111,383.913C367.154,395.802 407.611,395.345 427.865,373.361L410.668,364.372L464.016,337.209L452.877,391.871L440.176,380.786C413.471,427.949 367.884,437.349 315.111,432.375L315.111,383.913Z" style="fill:white;"/>
    </g>
    <g transform="matrix(1.225644,0,0,1.484716,729.193047,163.766341)">
        <path d="M282.78,344.374L282.78,435.259C275.465,434.824 274.425,435.712 274.135,433.512C274.12,433.403 274.122,433.417 274.122,358.093C274.122,349.372 274.871,344.084 269.606,342.376C268.621,342.056 268.04,341.868 256.666,341.959C256.056,341.964 254.482,341.77 254.303,343.538C254.269,343.874 254.298,431.938 254.287,432.69C254.246,435.628 252.678,435.134 249.813,435.134C248.444,435.133 245.968,435.606 245.766,433.52C245.716,433.003 245.787,343.872 245.728,343.489C245.325,340.848 241.742,342.843 241.085,341.018C240.85,340.367 240.896,335.348 241.048,334.866C241.438,333.63 241.982,333.833 252.382,333.833C270.853,333.833 270.916,333.673 274.692,334.795C278.685,335.981 280.874,339.63 281.359,341C281.928,342.607 281.823,343.315 281.879,343.414C282.091,343.799 282.567,343.99 282.78,344.374ZM143.211,394.941C143.572,384.506 145.49,366.691 145.865,358.927C146.263,350.71 146.735,350.297 148.943,347.059C149.138,346.773 150.718,344.456 148.699,342.739C147.113,341.39 140.61,342.79 139.537,341.632C139.218,341.289 138.899,340.945 139.113,335.783C139.119,335.66 139.158,334.715 139.565,334.301C140.024,333.837 141.727,333.833 141.919,333.833C151.111,333.813 151.421,333.692 152.194,334.944C154.049,337.947 153.766,338.098 153.979,338.317C154.062,338.403 154.722,339.083 155.386,338.835C155.8,338.68 159.217,333.153 166.752,333.115C176.657,333.066 178.748,341.96 178.956,342.589C179.845,345.273 179.852,346.955 179.909,410.394C179.912,414.257 180.081,414.244 180.082,418.111C180.083,425.412 179.984,425.394 179.908,432.692C179.891,434.332 179.758,435.052 177.878,435.13C176.049,435.206 164.493,435.14 163.329,435.133C160.785,435.119 160.8,434.378 160.799,431.829C160.797,428.092 160.308,426.868 163.329,426.842C169.418,426.789 171.418,427.416 171.532,424.95C171.571,424.115 171.412,374.483 171.398,370.095C171.383,365.374 171.264,365.391 171.264,360.665C171.264,349.607 171.856,343.61 167.552,341.934C161.878,339.723 158.529,345.771 157.164,347.688C153.908,352.258 154.521,353.847 154.484,354.65C154.224,360.294 152.727,377.34 152.698,377.799C152.111,387.277 152.038,387.267 151.998,388.091C151.965,388.78 151.653,395.2 151.473,396.69C150.754,402.677 150.903,402.673 150.47,408.678C148.641,434.033 148.518,434.104 148.088,434.554C147.746,434.913 147.384,435.293 141.925,435.133C140.147,435.081 139.562,434.681 140.093,430.957C140.689,426.783 140.729,423.123 140.982,420.675C141.557,415.103 141.306,415.096 141.809,409.528C142.512,401.752 142.268,401.741 143.211,394.941ZM192.037,422.379C192.38,414.922 192.589,414.941 192.713,412.122C192.74,411.502 192.965,406.376 193.228,404.385C193.681,400.956 193.564,400.958 193.877,397.501C194.379,391.963 195.524,374.556 196.176,369.283C196.445,367.108 196.323,367.117 196.476,364.932C196.544,363.971 197.282,353.454 197.34,352.921C197.934,347.414 202.201,347.004 200.261,343.445C199.268,341.624 196.729,342.185 192.433,342.119C190.985,342.097 190.223,341.824 190.171,340.075C190.007,334.428 190.467,334.076 191.544,333.868C191.852,333.808 200.786,333.831 201.019,333.849C204.304,334.101 204.544,338.601 205.506,338.837C207.055,339.218 206.742,336.94 212.236,334.292C214.946,332.986 226.884,330.201 230.175,343.504C230.768,345.902 230.832,346.162 230.832,374.383C230.832,406.266 230.862,406.728 231.041,409.534C231.087,410.267 231.1,429.093 231.033,430.117C230.784,433.947 231.275,435.108 228.405,435.133C227.241,435.144 217.691,435.23 213.855,435.13C211.551,435.07 211.76,434.06 211.804,429.251C211.822,427.336 211.936,426.893 213.856,426.845C221.341,426.658 221.992,427.435 222.512,425.867C222.635,425.496 222.559,423.46 222.552,423.251C222.464,420.893 222.397,370.405 222.391,365.809C222.384,360.658 222.231,360.68 222.231,355.52C222.231,350.397 222.931,343.263 218.145,341.757C214.623,340.65 212.288,342.644 210.566,344.506C209.175,346.01 206.332,350.493 206.041,351.186C205.799,351.761 205.637,352.148 205.201,358.945C204.391,371.576 204.254,371.555 204.187,372.652C203.795,379.087 203.669,379.062 203.247,385.509C202.678,394.214 202.564,394.195 202.528,394.952C202.353,398.535 201.909,403.324 201.879,403.537C201.05,409.354 200.917,421.986 199.985,428.375C199.234,433.529 200.46,434.971 197.572,435.126C192.121,435.419 191.696,434.967 191.353,434.603C190.434,433.625 191.679,426.976 192.037,422.379ZM-371.49,423.33C-372.08,425.976 -372.965,430.136 -378.835,433.287C-382.303,435.147 -388.588,435.647 -389.159,434.539C-389.637,433.611 -389.52,431.486 -389.515,430.115C-389.51,428.717 -389.802,428.656 -389.147,427.41C-388.591,426.353 -383.414,427.623 -380.73,423.087C-379.463,420.947 -379.634,420.774 -379.634,392.389C-379.634,343.269 -379.61,343.244 -379.822,342.779C-380.143,342.075 -381.157,341.983 -381.291,341.971C-381.74,341.93 -405.755,341.996 -406.128,341.931C-407.048,341.769 -407.751,341.68 -407.544,335.813C-407.48,333.998 -406.563,333.848 -405.256,333.833C-405.253,333.833 -375.557,333.831 -375.279,333.835C-374.992,333.839 -372.52,333.571 -371.316,335.946C-370.866,336.833 -370.919,336.897 -370.919,377.813L-370.919,401.82C-370.919,420.07 -370.84,420.086 -371.49,423.33ZM-88.423,333.833C-85.498,333.84 -81.987,333.247 -81.234,336.582C-81.041,337.434 -81.063,337.44 -81.063,385.529C-81.063,422.073 -80.949,422.134 -81.827,424.891C-84.764,434.118 -93.951,434.907 -95.293,435.023C-99.072,435.347 -99.583,434.877 -99.607,432.687C-99.662,427.781 -99.534,427.7 -98.964,427.211C-98.003,426.388 -90.766,427.599 -89.797,419.861C-89.723,419.268 -89.731,419.265 -89.731,358.093C-89.731,342.895 -89.622,342.644 -90.374,342.208C-90.88,341.915 -90.929,341.96 -113.255,341.958C-116.368,341.958 -117.609,342.438 -117.62,339.23C-117.627,337.241 -117.894,334.459 -116.716,334.006C-116.201,333.809 -116.178,333.833 -88.423,333.833ZM28.033,323.368L35.74,323.368C35.868,323.697 35.816,324.078 35.944,324.407C35.968,324.47 36.379,324.733 36.495,325.527C36.636,326.504 36.298,332.302 36.785,333.119C37.29,333.965 37.552,333.833 50.297,333.833C57.997,333.833 60.524,333.189 60.663,337.512C60.856,343.487 60.02,343.405 58.336,356.429C58.274,356.91 58.151,356.885 57.35,362.411C56.692,366.951 55.164,376.249 54.115,383.868C53.516,388.221 53.038,388.832 52.254,395.85C52.05,397.677 51.088,402.887 50.975,403.497C50.438,406.409 50.261,409.784 49.308,414.653C48.6,418.266 46.633,433.713 46.029,434.411C45.379,435.163 45.3,435.086 44.295,435.124C38.53,435.343 38.363,434.94 38.174,434.484C37.706,433.357 38.916,428.967 39.65,423.205C40.809,414.115 41.239,414.195 41.966,407.85C42.156,406.188 45.058,388.41 46.176,380.408C46.864,375.48 46.995,375.512 47.333,373.47C47.547,372.179 47.408,372.17 49.775,357.293C50.537,352.501 50.354,352.49 51.465,346.15C51.639,345.159 52.246,343.078 51.472,342.333C50.946,341.827 50.825,341.929 31.458,341.922C28.539,341.921 27.485,342.146 27.581,339.228C27.776,333.212 27.534,325.967 27.592,325.548C27.665,325.029 27.844,325.105 27.948,324.592C28.071,323.983 27.91,323.976 28.033,323.368ZM-339.317,323.368L-331.61,323.368C-331.511,323.989 -331.653,323.98 -331.552,324.611C-331.482,325.05 -331.356,324.999 -331.279,325.442C-331.147,326.193 -331.498,332.657 -330.863,333.319C-330.25,333.958 -328.62,333.833 -323.047,333.833C-309.123,333.833 -308.783,333.625 -307.721,335.013C-306.68,336.374 -306.965,341.525 -307.504,344.397C-308.545,349.949 -308.23,349.984 -309.171,355.55C-310.183,361.53 -310.093,361.532 -311.051,367.525C-313.323,381.749 -313.132,381.778 -313.381,383.005C-314.637,389.188 -315.495,397.207 -316.115,400.122C-316.244,400.729 -316.711,402.925 -317.271,407.794C-317.675,411.308 -317.909,411.254 -318.413,414.738C-319.462,422.001 -319.416,421.987 -320.651,429.226C-321.424,433.758 -320.724,435.11 -323.905,435.133C-328.097,435.163 -328.716,435.209 -329.279,434.603C-330.286,433.519 -328.245,425.833 -327.877,422.435C-327.801,421.741 -327.346,417.545 -326.646,413.793C-325.872,409.639 -325.941,409.634 -323.108,390.666C-322.257,384.962 -321.945,384.039 -321.654,382.06C-320.03,370.995 -320.015,371.017 -319.876,370.056C-319.501,367.478 -316.889,350.641 -316.861,350.4C-316.103,343.975 -315.714,344.047 -315.736,343.487C-315.741,343.365 -315.778,342.413 -316.354,342.098C-316.745,341.885 -316.781,341.924 -335.891,341.922C-337.42,341.922 -339.815,342.438 -339.955,340.072C-339.961,339.972 -339.982,325.902 -339.941,325.54C-339.835,324.594 -339.543,324.729 -339.469,324.501C-339.351,324.138 -339.434,323.73 -339.317,323.368ZM-240.843,333.833C-237.161,333.836 -233.852,333.286 -233.754,338.369C-233.729,339.694 -233.748,424.353 -233.75,431.829C-233.75,433.555 -233.541,435.016 -235.712,435.128C-241.73,435.44 -241.984,434.738 -242.161,434.248C-242.469,433.396 -242.226,353.796 -242.301,344.37C-242.313,342.895 -242.109,342.587 -243.471,342.033C-243.646,341.961 -245.78,341.959 -245.981,341.958C-268.764,341.93 -269.078,342.127 -269.754,341.552C-270.107,341.251 -270.518,340.902 -270.279,335.774C-270.271,335.6 -270.207,334.213 -269.151,333.918C-268.804,333.821 -268.795,333.833 -240.843,333.833ZM13.476,333.833C16.716,333.835 19.129,333.457 20.08,335.88C20.319,336.49 20.35,340.206 20.162,340.891C19.763,342.34 16.852,341.941 16.053,341.962C14.587,342 14.288,342.015 14.061,343.475C13.933,344.291 14.215,433.378 13.91,434.244C13.737,434.734 13.512,435.373 7.491,435.126C7.26,435.117 5.846,435.13 5.615,433.566C5.588,433.386 5.591,433.388 5.591,359.807C5.591,343.11 5.663,342.988 5.131,342.448C4.468,341.774 2.638,341.959 1.488,341.958C-15.546,341.957 -15.665,342.037 -16.221,341.515C-16.556,341.2 -16.917,340.861 -16.708,335.785C-16.701,335.618 -16.645,334.263 -15.686,333.953C-15.264,333.816 -15.25,333.833 13.476,333.833ZM122.226,333.833C124.574,333.841 126.485,333.55 127.987,335.149C129.057,336.288 128.842,339.054 128.842,340.944C128.845,433.849 128.837,433.871 128.695,434.25C128.513,434.739 128.265,435.403 122.236,435.126C121.895,435.11 120.629,435.059 120.421,433.556C120.397,433.385 120.4,433.387 120.4,358.093C120.4,343.118 120.482,342.983 119.894,342.41C119.358,341.887 119.24,341.958 103.387,341.958C93.584,341.958 93.385,342.097 92.702,341.249C92.263,340.704 92.349,339.527 92.348,339.229C92.342,337.148 92.118,334.511 93.103,334.07C93.703,333.801 93.737,333.833 122.226,333.833ZM-594.064,341.802L-594.064,334.085C-593.746,334.048 -593.446,333.836 -591.925,333.834C-589.458,333.83 -561.835,333.789 -561.081,333.857C-556.895,334.236 -557.592,338.872 -557.591,340.087C-557.589,347.564 -557.557,433.144 -557.612,433.551C-557.807,434.999 -558.966,435.103 -559.395,435.125C-559.503,435.13 -564.145,435.152 -564.498,435.101C-565.857,434.906 -565.925,433.686 -565.935,433.515C-565.979,432.717 -565.914,343.841 -565.97,343.477C-566.195,342.02 -566.49,342.001 -567.955,341.962C-572.305,341.846 -588.797,342.186 -594.064,341.802ZM-524.356,334.402C-520.199,335.53 -514.761,337.615 -514.706,349.518L-514.706,431.829C-514.706,433.425 -514.598,434.127 -515.429,434.794C-515.748,435.05 -515.763,435.179 -520.849,435.133C-523.847,435.106 -523.421,433.965 -523.422,430.972C-523.438,368.785 -523.317,368.786 -523.297,368.387C-523.266,367.753 -523.198,351.18 -523.337,349.512C-524.059,340.875 -529.759,341.958 -537.12,341.958C-546.093,341.958 -547.075,342.165 -547.484,340.979C-547.559,340.762 -547.99,335.144 -547.172,334.306C-546.65,333.77 -546.524,333.83 -531.126,333.833C-526.681,333.834 -526.696,333.932 -524.356,334.402ZM-420.271,372.668C-420.271,430.539 -420.277,430.538 -420.212,432.683C-420.206,432.869 -420.157,434.465 -420.903,434.896C-421.302,435.127 -421.546,435.268 -426.655,435.132C-428.602,435.08 -428.733,434.643 -428.747,432.694C-428.756,431.493 -428.73,349.905 -428.762,349.532C-429.484,340.996 -434.15,341.958 -442.928,341.958C-451.761,341.958 -451.99,342.116 -452.693,341.164C-452.948,340.82 -453.163,340.529 -452.968,335.812C-452.892,333.97 -451.898,333.848 -450.641,333.834C-449.132,333.816 -434.035,333.642 -431.781,333.955C-418.754,335.765 -420.271,346.466 -420.271,355.52L-420.271,372.668ZM-178.001,342.659C-178.001,349.519 -177.974,427.492 -178.218,428.427C-180.165,435.902 -185.687,435.135 -194.603,435.134C-197.077,435.133 -197.898,435.255 -197.918,432.685C-197.941,429.769 -198.135,427.427 -197.041,427C-195.217,426.287 -187.961,428.111 -186.747,425.037C-186.332,423.988 -186.38,343.623 -186.389,343.544C-186.613,341.711 -188.236,341.926 -188.611,341.922C-192.421,341.881 -195.231,342.255 -195.724,341.101C-195.89,340.711 -196.055,340.324 -195.985,335.807C-195.956,333.886 -195.654,333.632 -193.739,333.546C-193.703,333.545 -182.819,333.545 -182.616,333.546C-177.273,333.578 -178.001,336.44 -178.001,342.659ZM-54.775,413.824C-54.775,433.955 -54.736,434.022 -55.03,434.4C-55.643,435.188 -55.75,435.093 -56.747,435.128C-62.324,435.323 -62.632,435.027 -62.993,434.68C-63.616,434.082 -63.528,433.94 -63.528,419.826C-63.528,343.67 -63.526,343.673 -63.548,343.511C-63.754,341.999 -65.053,341.979 -65.316,341.967C-66.234,341.924 -69.483,342.175 -70.202,341.527C-71.119,340.698 -70.616,334.967 -70.591,334.887C-70.204,333.65 -69.541,333.823 -60.165,333.833C-54.085,333.84 -54.775,336.231 -54.775,344.374L-54.775,413.824ZM-289.652,333.833C-287.86,333.843 -283.096,333.067 -283.202,338.375C-283.34,345.287 -283.184,433.026 -283.28,433.612C-283.54,435.211 -284.203,435.217 -289.648,435.132C-289.846,435.129 -291.615,435.356 -291.854,433.512C-291.867,433.405 -291.866,433.415 -291.866,382.1C-291.866,343.275 -291.831,343.235 -292.137,342.604C-292.757,341.323 -297.727,342.522 -298.733,341.473C-299.179,341.008 -299.185,339.414 -299.186,339.231C-299.186,339.017 -299.228,335.473 -299.076,334.941C-298.69,333.593 -297.551,333.833 -289.652,333.833ZM-167.483,337.515C-167.392,335.188 -167.783,335.021 -167.016,334.276C-166.563,333.836 -164.828,333.833 -164.634,333.833C-155.948,333.82 -155.948,333.789 -155.197,333.863C-154.846,333.897 -152.375,334.139 -151.785,336.657C-151.597,337.458 -151.618,337.456 -151.618,426.685C-151.618,433.704 -151.215,434.983 -153.51,435.126C-153.661,435.136 -158.381,435.142 -158.623,435.116C-158.755,435.101 -159.753,434.993 -160.051,434.272C-160.242,433.81 -160.081,342.967 -160.939,342.286C-161.59,341.769 -164.38,341.994 -165.498,341.954C-167.997,341.865 -167.476,339.769 -167.483,337.515ZM-398.401,447.69L-406.964,447.69C-407.202,444.47 -407.128,444.482 -407.128,441.261C-407.128,355.727 -407.129,355.726 -407.118,355.508C-407,353.299 -405.43,353.553 -400.966,353.605C-400.391,353.612 -398.66,353.423 -398.579,355.532C-398.566,355.881 -398.569,445.371 -398.577,445.538C-398.633,446.729 -398.481,446.709 -398.401,447.69ZM-108.974,447.69L-117.537,447.69C-117.464,447.197 -117.153,447.249 -117.217,445.533C-117.224,445.367 -117.226,355.656 -117.216,355.538C-117.046,353.529 -115.669,353.619 -114.974,353.606C-114.56,353.598 -110.43,353.52 -109.798,353.701C-108.455,354.087 -108.671,354.608 -108.671,365.809C-108.671,445.548 -108.657,445.554 -108.786,446.475C-108.843,446.881 -108.917,447.284 -108.974,447.69ZM97.393,354.34L100.033,354.403C101.171,354.682 101.228,356.163 101.235,356.346C101.282,357.566 101.163,427.415 101.292,432.683C101.362,435.527 100.24,435.131 97.393,435.134C97.123,435.134 94.226,435.137 94.024,435.05C92.669,434.472 92.886,434.165 92.868,432.691C92.792,426.438 92.861,364.06 92.867,358.093C92.868,357.883 92.87,355.776 92.955,355.472C93.173,354.695 93.785,354.495 93.889,354.461C94.238,354.348 97.113,354.341 97.393,354.34ZM-269.336,434.623C-269.852,434.09 -269.78,377.813 -269.78,357.236C-269.778,354.946 -269.688,354.361 -267.394,354.341C-263.627,354.306 -261.834,354.11 -261.518,355.551C-261.438,355.918 -261.447,355.916 -261.447,430.114C-261.447,433.875 -260.951,435.118 -263.964,435.134C-267.816,435.153 -268.747,435.231 -269.336,434.623ZM-589.354,354.34C-589.165,354.342 -586.017,354.119 -585.459,354.936C-585.151,355.387 -585.149,357.839 -585.148,358.093C-585.143,364.128 -585.078,432.346 -585.165,433.534C-585.175,433.669 -585.249,434.668 -586.043,434.978C-586.4,435.118 -592.746,435.449 -593.009,434.7C-593.194,434.175 -593.173,434.158 -593.173,382.957C-593.173,354.963 -593.22,354.837 -592.837,354.542C-592.604,354.363 -589.633,354.342 -589.354,354.34ZM-504.866,337.515L-504.756,334.88C-504.353,333.59 -502.888,333.832 -496.018,333.833C-494.78,333.833 -489.977,333.196 -489.294,336.684C-489.021,338.077 -489.248,364.158 -489.158,367.524C-489.03,372.304 -489.031,372.288 -489.031,379.528C-489.031,386.573 -488.637,387.866 -490.886,388.038C-491.057,388.051 -495.76,388.056 -496.01,388.029C-496.149,388.014 -497.187,387.901 -497.509,387.148C-497.715,386.667 -497.69,386.641 -497.69,354.663C-497.69,343.158 -497.575,342.985 -498.325,342.33C-498.99,341.75 -501.742,341.996 -502.878,341.954C-505.382,341.86 -504.858,339.732 -504.866,337.515ZM-474.611,333.833C-468.115,333.833 -466.835,333.792 -466.028,334.009C-463.57,334.67 -463.373,337.156 -463.345,337.507C-463.343,337.531 -463.212,380.469 -463.25,385.533C-463.267,387.828 -463.749,388.04 -466.048,388.048C-468.561,388.056 -471.282,388.318 -471.722,387.118C-471.89,386.659 -471.87,386.641 -471.87,352.948C-471.87,343.177 -471.722,342.96 -472.63,342.264C-473.526,341.577 -477.654,342.411 -478.498,341.444C-479.222,340.614 -478.836,335.085 -478.806,334.968C-478.418,333.461 -475.695,333.838 -474.611,333.833ZM-35.332,333.833C-34.278,333.835 -31.941,333.767 -31.036,334.036C-29.736,334.422 -28.886,335.738 -28.812,335.941C-28.207,337.596 -28.707,354.372 -28.489,358.093C-28.355,360.379 -28.345,360.376 -28.349,383.815C-28.349,386.896 -27.979,388.036 -31.051,388.048C-33.739,388.058 -36.318,388.304 -36.774,387.134C-36.954,386.67 -36.933,386.649 -36.933,352.948C-36.933,343.17 -36.795,342.972 -37.633,342.295C-38.298,341.759 -41.153,341.998 -42.193,341.952C-42.356,341.945 -43.67,341.886 -43.985,340.98C-44.21,340.331 -44.164,335.377 -44.018,334.901C-43.613,333.584 -42.095,333.833 -35.332,333.833ZM-208.585,335.174C-207.44,336.624 -207.729,386.987 -208.087,387.396C-208.806,388.217 -209.764,388.059 -213.441,388.048C-215.738,388.041 -216.216,387.824 -216.233,385.533C-216.298,376.567 -216.074,343.602 -216.376,342.806C-217.05,341.029 -222.403,342.906 -223.133,341.091C-223.551,340.054 -223.32,335.054 -223.311,335.03C-222.973,334.083 -222.183,333.91 -222.05,333.881C-221.31,333.719 -221.301,333.803 -212.584,333.834C-212.473,333.834 -209.858,333.561 -208.585,335.174ZM33.697,295.847L33.697,65.844L-16.079,65.844L-16.701,29.104L74.666,29.104L74.666,295.847L33.697,295.847ZM-553.936,265.593L-594.947,265.593L-594.947,79.494L-553.91,79.494L-553.936,265.593ZM-491.149,265.593L-532.147,265.593L-532.147,64.487L-594.947,64.487L-594.947,29.104L-493.223,29.104L-491.149,265.593ZM-444.002,265.593C-467.51,265.209 -467.883,268.396 -468.482,265.593C-468.99,263.211 -469.959,148.231 -470.036,82.38L-470.058,64.99L-479.659,64.99L-479.659,29.104L-432.263,29.104L-432.263,165.609L-410.529,160.117L-410.529,64.99L-419.985,64.99L-419.985,29.104L-397.076,29.104C-384.592,29.223 -373.929,28.52 -373.382,29.104C-372.209,30.356 -371.114,183.882 -372.269,185.044C-373.07,185.849 -427.812,200.569 -427.812,200.569L-428.538,229.626L-405.772,228.954C-393.249,228.579 -380.045,227.609 -376.426,226.784C-368.591,225.007 -360.514,218.603 -356.396,210.903C-353.581,205.636 -353.558,205.101 -353.251,136.468L-352.931,64.99L-361.633,64.99L-361.633,29.104L-337.864,29.104C-325.138,29.351 -312.231,29.104 -312.231,29.104C-312.231,29.104 -312.43,67.444 -312.231,113.473C-311.825,206.525 -312.161,211.748 -319.735,229.991C-327.444,248.569 -342.349,260.398 -367.253,265.593C-376.824,267.59 -404.341,266.236 -444.002,265.593ZM-214.019,265.593L-254.295,265.593L-253.836,64.487L-300.432,64.487L-300.432,29.104L-202.283,29.104L-201.694,64.225L-213.364,64.487L-214.019,265.593ZM177.046,265.593L135.693,265.593L135.693,65.844C135.693,65.844 124.018,66.064 111.046,65.844L87.465,65.844L87.465,29.104L93.091,29.104C96.183,28.641 111.603,28.858 127.34,29.104C127.34,29.104 150.076,28.421 155.952,29.104C166.763,30.361 175.203,41.961 177.046,50.689C178.861,59.248 177.046,265.593 177.046,265.593ZM275.01,265.593L233.042,265.593L233.042,65.844C233.042,65.844 221.837,65.928 210.046,65.844L188.597,65.844L188.597,29.104L287.799,29.104C287.799,29.104 287.924,57.55 287.799,65.724L275.01,65.844L275.01,265.593ZM-181.374,265.593L-181.374,64.487L-192.256,64.487L-192.256,29.104L-146.169,29.104C-114.635,29.104 -103.077,28.271 -96.734,29.659C-92.888,30.501 -90.324,31.207 -87.022,34.367C-84.7,36.589 -83.676,38.705 -82.481,41.067C-78.894,48.151 -79.49,66.026 -78.942,155.665C-78.58,214.811 -78.771,265.593 -78.771,265.593L-119.041,265.593L-118.573,64.487L-141.689,64.487L-141.689,265.593L-181.374,265.593Z" style="fill:white;"/>
    </g>
</svg>
