<svg width="920" height="764" viewBox="0 0 920 764" fill="none" xmlns="http://www.w3.org/2000/svg">
<path d="M654.739 763.421V523.871H602.897L602.249 485.606H697.409V763.421H654.739ZM42.713 731.911H0V538.087H42.74L42.713 731.911ZM108.106 731.911H65.407V522.457H0V485.606H105.946L108.106 731.911ZM157.211 731.911C132.727 731.511 132.338 734.831 131.714 731.911C131.185 729.431 130.176 609.678 130.096 541.093L130.073 522.981H120.073V485.606H169.437V627.777L192.073 622.057V522.981H182.225V485.606H206.084C219.087 485.73 230.192 484.997 230.762 485.606C231.984 486.91 233.124 646.809 231.921 648.019C231.087 648.857 174.073 664.188 174.073 664.188L173.316 694.451L197.028 693.751C210.07 693.361 223.823 692.351 227.592 691.491C235.752 689.641 244.164 682.971 248.453 674.951C251.385 669.466 251.409 668.908 251.729 597.426L252.062 522.981H242.999V485.606H267.754C281.009 485.863 294.452 485.606 294.452 485.606C294.452 485.606 294.244 525.537 294.452 573.477C294.874 670.391 294.524 675.831 286.636 694.831C278.607 714.181 263.083 726.501 237.146 731.911C227.177 733.991 198.518 732.581 157.211 731.911ZM396.74 731.911H354.792L355.271 522.457H306.74V485.606H408.964L409.577 522.184L397.423 522.457L396.74 731.911ZM804.039 731.911H760.969V523.871C760.969 523.871 748.809 524.1 735.299 523.871H710.739V485.606H716.599C719.819 485.123 735.879 485.349 752.269 485.606C752.269 485.606 775.949 484.894 782.069 485.606C793.329 486.915 802.119 498.996 804.039 508.087C805.929 517.001 804.039 731.911 804.039 731.911ZM906.069 731.911H862.359V523.871C862.359 523.871 850.689 523.958 838.409 523.871H816.069V485.606H919.389C919.389 485.606 919.519 515.232 919.389 523.746L906.069 523.871V731.911ZM430.74 731.911V522.457H419.407V485.606H467.407C500.25 485.606 512.288 484.738 518.894 486.184C522.9 487.061 525.57 487.796 529.009 491.087C531.427 493.401 532.494 495.605 533.739 498.065C537.474 505.443 536.854 524.06 537.425 617.42C537.802 679.021 537.603 731.911 537.603 731.911H495.661L496.148 522.457H472.073V731.911H430.74Z" fill="white"/>
<path fill-rule="evenodd" clip-rule="evenodd" d="M315.11 391.667V440.129C367.883 445.103 413.47 435.703 440.175 388.54L452.876 399.625L464.015 344.963L410.667 372.126L427.864 381.115C407.61 403.099 367.153 403.556 315.11 391.667Z" fill="white"/>
<path fill-rule="evenodd" clip-rule="evenodd" d="M524.287 366.28L524.276 220.184C524.061 202.312 517.337 190.948 506.699 183.498C482.498 196.6 472.08 217.36 471.329 243.49L471.339 399.912L524.287 366.28Z" fill="#8CA444"/>
<path fill-rule="evenodd" clip-rule="evenodd" d="M327.964 92.1531L472.027 2.86711C472.386 2.64511 475.411 0.546106 476.401 0.827106C477.391 0.546106 480.416 2.64511 480.775 2.86711L624.838 91.4281V368.356C624.838 369.727 623.726 370.839 622.355 370.839H521.018C519.647 370.839 518.535 369.727 518.535 368.356C518.535 368.356 518.536 220.592 518.536 220.328C518.012 207.495 514.169 197.698 507.012 190.762C499.819 183.79 489.457 179.743 476.4 177.984C463.346 179.743 452.984 183.79 445.79 190.762C438.638 197.693 434.796 207.482 434.267 220.301V353.649C434.267 354.573 433.754 355.421 432.935 355.849C432.935 355.849 416.203 364.6 409.181 368.605C408.029 369.261 406.852 370.001 406.634 370.14C406.177 370.584 405.559 370.839 404.908 370.839H330.447C329.076 370.839 327.964 369.727 327.964 368.356C327.964 368.356 327.964 110.325 327.964 92.1531ZM537.542 359.356L570.842 326.055L604.986 359.356H537.542ZM347.899 359.275L381.96 326.055L410.543 354.639L402.535 358.563L347.899 359.275ZM613.355 351.477L576.534 315.565V225.925H613.355V351.477ZM339.447 225.925H376.268V315.565L339.447 351.477V225.925ZM565.05 315.607L530.018 350.639V225.925H565.05V315.607ZM422.784 225.925V347.595L421.085 348.482L387.752 315.597V225.925H422.784ZM565.05 148.996V214.442H529.6C528.082 200.806 523.037 190.302 515.003 182.516C507.061 174.818 496.069 169.745 482.23 167.275L482.222 148.996H565.05ZM387.752 214.442V148.996H470.58L470.572 167.275C456.733 169.745 445.741 174.818 437.799 182.516C429.756 190.31 424.709 200.829 423.199 214.442H387.752ZM576.534 146.249L613.355 108.811V214.442H576.534V146.249ZM339.447 108.811L376.268 146.249V214.442H339.447V108.811ZM393.016 137.512L469.482 27.8951L470.476 137.512H393.016ZM482.326 137.512L483.32 27.8951L559.786 137.512H482.326ZM571.579 134.347L495.695 25.5641L609.902 96.0231L571.579 134.347ZM342.9 96.0231L457.107 25.5641L381.223 134.347L342.9 96.0231Z" fill="#E8AC2A"/>
</svg>
