<?xml version="1.0" encoding="UTF-8" standalone="no"?>
<!DOCTYPE svg PUBLIC "-//W3C//DTD SVG 1.1//EN" "http://www.w3.org/Graphics/SVG/1.1/DTD/svg11.dtd">
<svg width="100%" height="100%" viewBox="0 0 920 764" version="1.1" xmlns="http://www.w3.org/2000/svg" xmlns:xlink="http://www.w3.org/1999/xlink" xml:space="preserve" xmlns:serif="http://www.serif.com/" style="fill-rule:evenodd;clip-rule:evenodd;stroke-linejoin:round;stroke-miterlimit:2;">
    <g transform="matrix(1,0,0,1,-379.601,-325.489)">
        <path id="path300" d="M1034.34,1088.91L1034.34,849.36L982.498,849.36L981.85,811.095L1077.01,811.095L1077.01,1088.91L1034.34,1088.91ZM422.314,1057.4L379.601,1057.4L379.601,863.576L422.341,863.576L422.314,1057.4ZM487.707,1057.4L445.008,1057.4L445.008,847.946L379.601,847.946L379.601,811.095L485.547,811.095L487.707,1057.4ZM536.812,1057.4C512.328,1057 511.939,1060.32 511.315,1057.4C510.786,1054.92 509.777,935.167 509.697,866.582L509.674,848.47L499.674,848.47L499.674,811.095L549.038,811.095L549.038,953.266L571.674,947.546L571.674,848.47L561.826,848.47L561.826,811.095L585.685,811.095C598.688,811.219 609.793,810.486 610.363,811.095C611.585,812.399 612.725,972.298 611.522,973.508C610.688,974.346 553.674,989.677 553.674,989.677L552.917,1019.94L576.629,1019.24C589.671,1018.85 603.424,1017.84 607.193,1016.98C615.353,1015.13 623.765,1008.46 628.054,1000.44C630.986,994.955 631.01,994.397 631.33,922.915L631.663,848.47L622.6,848.47L622.6,811.095L647.355,811.095C660.61,811.352 674.053,811.095 674.053,811.095C674.053,811.095 673.845,851.026 674.053,898.966C674.475,995.88 674.125,1001.32 666.237,1020.32C658.208,1039.67 642.684,1051.99 616.747,1057.4C606.778,1059.48 578.119,1058.07 536.812,1057.4L536.812,1057.4ZM776.341,1057.4L734.393,1057.4L734.872,847.946L686.341,847.946L686.341,811.095L788.565,811.095L789.178,847.673L777.024,847.946L776.341,1057.4ZM1183.64,1057.4L1140.57,1057.4L1140.57,849.36C1140.57,849.36 1128.41,849.589 1114.9,849.36L1090.34,849.36L1090.34,811.095L1096.2,811.095C1099.42,810.612 1115.48,810.838 1131.87,811.095C1131.87,811.095 1155.55,810.383 1161.67,811.095C1172.93,812.404 1181.72,824.485 1183.64,833.576C1185.53,842.49 1183.64,1057.4 1183.64,1057.4ZM1285.67,1057.4L1241.96,1057.4L1241.96,849.36C1241.96,849.36 1230.29,849.447 1218.01,849.36L1195.67,849.36L1195.67,811.095L1298.99,811.095C1298.99,811.095 1299.12,840.721 1298.99,849.235L1285.67,849.36L1285.67,1057.4ZM810.341,1057.4L810.341,847.946L799.008,847.946L799.008,811.095L847.008,811.095C879.851,811.095 891.889,810.227 898.495,811.673C902.501,812.55 905.171,813.285 908.61,816.576C911.028,818.89 912.095,821.094 913.34,823.554C917.075,830.932 916.455,849.549 917.026,942.909C917.403,1004.51 917.204,1057.4 917.204,1057.4L875.262,1057.4L875.749,847.946L851.674,847.946L851.674,1057.4L810.341,1057.4Z" style="fill:rgb(48,48,48);fill-rule:nonzero;"/>
        <g transform="matrix(-1,0,0,1,1712.01,11)">
            <g transform="matrix(-1,0,0,1,1332.41,322.243)">
                <path d="M315.111,383.913L315.111,432.375C367.884,437.349 413.471,427.949 440.176,380.786L452.877,391.871L464.016,337.209L410.668,364.372L427.865,373.361C407.611,395.345 367.154,395.802 315.111,383.913Z" style="fill:rgb(48,48,48);"/>
            </g>
            <g transform="matrix(-1,0,0,1,1332.41,322.243)">
                <path d="M524.288,358.526L524.277,212.43C524.062,194.558 517.338,183.194 506.7,175.744C482.499,188.846 472.081,209.606 471.33,235.736L471.34,392.158L524.288,358.526Z" style="fill:rgb(140,164,68);"/>
            </g>
            <g transform="matrix(-1,0,0,1,1332.41,314.489)">
                <path d="M327.965,92.153L472.028,2.867C472.387,2.645 475.412,0.546 476.402,0.827C477.392,0.546 480.417,2.645 480.776,2.867C480.776,2.867 624.839,91.428 624.839,91.428L624.839,368.356C624.839,369.727 623.727,370.839 622.356,370.839L521.019,370.839C519.648,370.839 518.536,369.727 518.536,368.356C518.536,368.356 518.537,220.592 518.537,220.328C518.013,207.495 514.17,197.698 507.013,190.762C499.82,183.79 489.458,179.743 476.401,177.984C463.347,179.743 452.985,183.79 445.791,190.762C438.639,197.693 434.797,207.482 434.268,220.301L434.268,353.649C434.268,354.573 433.755,355.421 432.936,355.849C432.936,355.849 416.204,364.6 409.182,368.605C408.03,369.261 406.853,370.001 406.635,370.14C406.178,370.584 405.56,370.839 404.909,370.839L330.448,370.839C329.077,370.839 327.965,369.727 327.965,368.356C327.965,368.356 327.965,110.325 327.965,92.153ZM537.543,359.356L570.843,326.055C570.843,326.055 604.987,359.356 604.987,359.356L537.543,359.356ZM347.9,359.275L381.961,326.055C381.961,326.055 410.544,354.639 410.544,354.639C410.544,354.639 402.536,358.563 402.536,358.563L347.9,359.275ZM613.356,351.477L576.535,315.565C576.535,315.565 576.535,225.925 576.535,225.925C576.535,225.925 613.356,225.925 613.356,225.925L613.356,351.477ZM339.448,225.925L376.269,225.925C376.269,225.925 376.269,315.565 376.269,315.565C376.269,315.565 339.448,351.477 339.448,351.477L339.448,225.925ZM565.051,315.607L530.019,350.639C530.019,350.639 530.019,225.925 530.019,225.925C530.019,225.925 565.051,225.925 565.051,225.925L565.051,315.607ZM422.785,225.925L422.785,347.595C422.785,347.595 421.086,348.482 421.086,348.482C421.086,348.482 387.753,315.597 387.753,315.597C387.753,315.597 387.753,225.925 387.753,225.925L422.785,225.925ZM565.051,148.996L565.051,214.442C565.051,214.442 529.601,214.442 529.601,214.442C528.083,200.806 523.038,190.302 515.004,182.516C507.062,174.818 496.07,169.745 482.231,167.275C482.231,167.275 482.223,148.996 482.223,148.996L565.051,148.996ZM387.753,214.442L387.753,148.996C387.753,148.996 470.581,148.996 470.581,148.996C470.581,148.996 470.573,167.275 470.573,167.275C456.734,169.745 445.742,174.818 437.8,182.516C429.757,190.31 424.71,200.829 423.2,214.442L387.753,214.442ZM576.535,146.249C576.535,146.249 613.356,108.811 613.356,108.811L613.356,214.442L576.535,214.442C576.535,214.442 576.535,146.249 576.535,146.249ZM339.448,108.811L376.269,146.249C376.269,146.249 376.269,214.442 376.269,214.442C376.269,214.442 339.448,214.442 339.448,214.442C339.448,214.442 339.448,108.811 339.448,108.811ZM393.017,137.512L469.483,27.895C469.483,27.895 470.477,137.512 470.477,137.512L393.017,137.512ZM482.327,137.512L483.321,27.895C483.321,27.895 559.787,137.512 559.787,137.512L482.327,137.512ZM571.58,134.347L495.696,25.564C495.696,25.564 609.903,96.023 609.903,96.023L571.58,134.347ZM342.901,96.023L457.108,25.564C457.108,25.564 381.224,134.347 381.224,134.347L342.901,96.023Z" style="fill:rgb(185,216,84);"/>
            </g>
        </g>
    </g>
</svg>
