<?xml version="1.0" encoding="UTF-8" standalone="no"?>
<!DOCTYPE svg PUBLIC "-//W3C//DTD SVG 1.1//EN" "http://www.w3.org/Graphics/SVG/1.1/DTD/svg11.dtd">
<svg width="100%" height="100%" viewBox="0 0 35 150" version="1.1" xmlns="http://www.w3.org/2000/svg" xmlns:xlink="http://www.w3.org/1999/xlink" xml:space="preserve" xmlns:serif="http://www.serif.com/" style="fill-rule:evenodd;clip-rule:evenodd;stroke-linejoin:round;stroke-miterlimit:2;">
    <g id="door" transform="matrix(1,0,0,1,-328.351,-134.623)">
        <path d="M328.447,227.031C328.536,174.515 328.584,170.215 329.109,167.394C331.474,154.686 335.986,144.591 341.867,138.85C344.872,135.916 347.429,134.671 350.533,134.627C352.501,134.599 353.065,134.722 354.305,135.452C358.842,138.119 361.781,144.648 362.589,153.858C362.801,156.279 362.915,176.414 362.907,209.954L362.893,262.274L346.572,272.354C337.595,277.898 329.824,282.703 329.301,283.031L328.351,283.627L328.447,227.031L328.447,227.031Z" style="fill:rgb(139,168,67);fill-rule:nonzero;"/>
    </g>
</svg>
