<?xml version="1.0" encoding="UTF-8" standalone="no"?>
<!DOCTYPE svg PUBLIC "-//W3C//DTD SVG 1.1//EN" "http://www.w3.org/Graphics/SVG/1.1/DTD/svg11.dtd">
<svg width="100%" height="100%" viewBox="0 0 210 255" version="1.1" xmlns="http://www.w3.org/2000/svg" xmlns:xlink="http://www.w3.org/1999/xlink" xml:space="preserve" xmlns:serif="http://www.serif.com/" style="fill-rule:evenodd;clip-rule:evenodd;stroke-linejoin:round;stroke-miterlimit:2;">
    <g id="house" transform="matrix(1,0,0,1,-227.247,-8.21059)">
        <path d="M227.249,165.394L227.252,68.354L228.61,67.588C229.356,67.166 252.647,53.638 280.367,37.524C308.087,21.411 331.084,8.22 331.472,8.211C331.86,8.202 355.649,21.73 384.337,38.274L436.497,68.354L436.527,262.434L362.927,262.434L362.924,210.034C362.921,176.581 362.801,156.269 362.59,153.858C361.657,143.224 350.384,133.819 349.441,133.111C347.162,131.399 342.57,129.195 339.408,128.294C337.24,127.677 336.087,127.565 331.888,127.565C326.235,127.565 323.886,128.065 319.198,130.261C311.343,133.942 305.578,140.685 302.849,149.384L301.967,152.194L301.795,247.648L288.603,254.826L263.884,230.114L251.409,242.592L238.934,255.07L287.887,255.234L282.287,258.243C279.207,259.898 276.305,261.518 275.838,261.843C275.03,262.405 273.812,262.434 251.118,262.434L227.247,262.434L227.249,165.394ZM424.204,255.074L399.25,230.114L387.008,242.353C380.275,249.084 374.767,254.7 374.767,254.833C374.767,254.965 385.89,255.074 399.485,255.074L424.204,255.074ZM294.447,205.634L294.447,160.994L267.247,160.994L267.247,223.231L280.765,236.753C288.2,244.19 294.32,250.274 294.365,250.274C294.41,250.274 294.447,230.186 294.447,205.634L294.447,205.634ZM382.69,236.431L395.89,223.228L395.727,161.154L369.167,161.154L369.086,205.394C369.041,229.726 369.114,249.634 369.247,249.634C369.38,249.634 375.43,243.693 382.69,236.431L382.69,236.431ZM429.487,205.314L429.487,160.994L402.927,160.994L402.927,223.279L415.915,236.456C423.059,243.704 429.035,249.634 429.195,249.634C429.369,249.634 429.487,231.773 429.487,205.314ZM260.207,223.237L260.207,160.994L234.287,160.994L234.287,249.151L247.247,236.194L260.207,223.237ZM260.193,129.874L260.18,105.794L247.246,92.674L234.312,79.554L234.299,116.754L234.287,153.954L260.207,153.954L260.193,129.874ZM295.177,150.994C296.531,143.389 299.669,137.29 305.155,131.603C310.763,125.79 318.121,121.908 325.887,120.664L328.367,120.266L328.367,107.874L267.247,107.874L267.247,153.954L294.651,153.954L295.177,150.994ZM395.727,153.794L395.727,108.034L335.407,107.871L335.407,120.266L337.887,120.664C342.9,121.467 348.535,123.735 353.034,126.759C355.941,128.713 360.951,133.822 362.904,136.823C365.927,141.468 367.889,146.432 368.698,151.478L369.096,153.961L382.411,153.878L395.727,153.794ZM429.487,116.834C429.487,96.418 429.379,79.714 429.248,79.714C429.117,79.714 423.141,85.581 415.968,92.753L402.927,105.791L402.927,153.954L429.487,153.954L429.487,116.834ZM328.146,100.594C328.362,100.215 327.98,23.393 327.762,23.403C327.535,23.412 271.087,100.335 271.087,100.634C271.087,100.922 327.982,100.882 328.146,100.594L328.146,100.594ZM392.047,100.665C392.047,100.425 336.434,24.652 335.694,23.883C335.097,23.263 335.087,23.473 335.087,36.07C335.087,43.12 335.182,60.576 335.299,74.861L335.512,100.834L363.779,100.834C379.326,100.834 392.047,100.758 392.047,100.665ZM289.487,63.204C303.743,43.76 316.036,26.98 316.806,25.915C318.15,24.053 318.169,23.996 317.286,24.457C314.104,26.119 236.987,71.153 236.902,71.398C236.8,71.693 263.04,98.613 263.391,98.575C263.488,98.564 275.231,82.647 289.487,63.204ZM413.474,85.007C420.946,77.534 426.982,71.343 426.888,71.249C426.543,70.904 345.229,24.025 345.136,24.118C345.016,24.238 399.507,98.565 399.728,98.582C399.817,98.589 406.002,92.48 413.474,85.007ZM328.392,172.327C328.407,171.955 328.483,171.879 328.585,172.134C328.678,172.365 328.666,172.641 328.56,172.747C328.454,172.854 328.378,172.665 328.392,172.327L328.392,172.327Z" style="fill:rgb(182,217,108);fill-rule:nonzero;"/>
    </g>
</svg>
