<?xml version="1.0" encoding="UTF-8" standalone="no"?>
<!DOCTYPE svg PUBLIC "-//W3C//DTD SVG 1.1//EN" "http://www.w3.org/Graphics/SVG/1.1/DTD/svg11.dtd">
<svg width="100%" height="100%" viewBox="0 0 640 302" version="1.1" xmlns="http://www.w3.org/2000/svg" xmlns:xlink="http://www.w3.org/1999/xlink" xml:space="preserve" xmlns:serif="http://www.serif.com/" style="fill-rule:evenodd;clip-rule:evenodd;stroke-linejoin:round;stroke-miterlimit:2;">
    <g id="path300" transform="matrix(1,0,0,1,-3.88041,-155.988)">
        <path d="M140.52,457.786L140.52,390.586L146.28,390.586L146.28,457.786L140.52,457.786ZM349.8,457.786L349.8,390.586L355.56,390.586L355.56,457.786L349.8,457.786ZM6.014,448.932C5.896,448.815 5.8,435.711 5.8,419.812L5.8,390.906L11.88,390.906L11.88,449.146L9.054,449.146C7.499,449.146 6.131,449.05 6.014,448.932ZM25.96,449.146L25.96,381.946L5.48,381.946L5.48,376.186L30.149,376.186L30.935,376.971L31.72,377.756L31.72,449.146L25.96,449.146ZM56.608,417.226L56.52,385.306L55.823,384.186C54.489,382.046 54.056,381.946 46.151,381.946L39.08,381.946L39.08,376.186L46.533,376.186C54.789,376.186 56.829,376.488 59.076,378.046C59.899,378.616 60.695,379.6 61.316,380.815L62.28,382.7L62.452,449.146L56.695,449.146L56.608,417.226ZM124.84,417.381C124.84,387.079 124.813,385.564 124.248,384.501C123.922,383.887 123.181,383.062 122.601,382.666C121.584,381.972 121.285,381.946 114.393,381.946L107.24,381.946L107.24,376.131L115.64,376.244C123.663,376.353 124.116,376.392 125.734,377.117C127.7,377.998 129.358,379.782 130.182,381.903C130.721,383.291 130.764,385.488 130.848,416.266L130.938,449.146L124.84,449.146L124.84,417.381ZM153.223,448.941C153.1,448.819 153,447.537 153,446.093L153,443.468L154.647,443.25C156.898,442.951 158.552,442.037 159.448,440.595L160.2,439.386L160.374,381.946L140.2,381.946L140.2,376.186L152.485,376.186C164.104,376.186 164.81,376.219 165.525,376.797L166.28,377.409L166.28,440.346L165.522,442.227C164.263,445.35 161.653,447.696 158.6,448.449C156.764,448.902 153.484,449.202 153.223,448.941ZM196.355,448.106C196.718,446.055 206.44,382.59 206.44,382.271C206.44,382.058 203.397,381.946 197.64,381.946L188.84,381.946L188.84,369.146L194.92,369.146L194.92,376.186L203.08,376.186C210.814,376.186 211.274,376.219 211.88,376.826C212.366,377.311 212.52,377.892 212.52,379.229C212.52,380.608 202.766,445.422 202.106,448.426C201.957,449.107 201.795,449.146 199.06,449.146L196.171,449.146L196.355,448.106ZM223.72,449.146L223.72,381.946L218.28,381.946L218.28,376.186L223.037,376.186C227.365,376.186 227.87,376.245 228.637,376.849L229.48,377.512L229.48,449.146L223.72,449.146ZM239.72,449.146L239.72,390.906L245.48,390.906L245.48,449.146L239.72,449.146ZM259.56,449.146L259.56,381.946L239.08,381.946L239.08,376.186L263.749,376.186L264.535,376.971L265.32,377.756L265.32,449.146L259.56,449.146ZM291.56,449.234L291.56,443.386L294.393,443.386C297.943,443.386 299.084,443.015 299.537,441.715C299.772,441.041 299.88,431.433 299.88,411.338L299.88,381.946L292.84,381.946L292.84,376.186L298.6,376.186C303.934,376.186 304.408,376.233 305,376.826C305.632,377.457 305.64,377.892 305.64,410.545C305.64,439.385 305.578,443.802 305.152,445.009C304.056,448.117 302.393,448.866 296.123,449.079L291.56,449.234ZM318.654,448.932C318.536,448.815 318.44,433.695 318.44,415.332L318.44,381.946L313.32,381.946L313.32,376.186L318.135,376.186C322.82,376.186 322.971,376.207 323.735,376.971L324.52,377.756L324.52,449.146L321.694,449.146C320.139,449.146 318.771,449.05 318.654,448.932ZM362.28,446.328L362.28,443.459L364.024,443.241C366.793,442.895 368.753,441.227 369.334,438.721C369.497,438.02 369.629,425.212 369.633,409.706L369.641,381.946L349.48,381.946L349.48,376.186L361.8,376.186C373.732,376.186 374.141,376.206 374.766,376.832C375.407,377.472 375.412,377.747 375.326,409.392L375.24,441.306L374.343,443.134C372.631,446.62 369.45,448.5 364.44,448.987L362.28,449.196L362.28,446.328ZM388.52,449.146L388.52,381.946L383.08,381.946L383.08,376.186L387.837,376.186C392.165,376.186 392.67,376.245 393.437,376.849L394.28,377.512L394.28,449.146L388.52,449.146ZM438.334,448.932C438.216,448.815 438.12,433.695 438.12,415.332L438.12,381.946L422.12,381.946L422.12,376.186L434.76,376.186C449.643,376.186 448.68,375.942 448.68,379.706L448.68,381.946L444.2,381.946L444.2,449.146L441.374,449.146C439.819,449.146 438.451,449.05 438.334,448.932ZM461.604,448.106C461.914,446.451 471.72,382.633 471.72,382.271C471.72,382.058 468.677,381.946 462.92,381.946L454.12,381.946L454.12,369.146L460.2,369.146L460.2,376.186L468.36,376.186C476.094,376.186 476.554,376.219 477.16,376.826C477.641,377.306 477.8,377.892 477.8,379.18C477.8,380.528 468.117,444.676 467.372,448.266L467.19,449.146L461.409,449.146L461.604,448.106ZM501.16,449.146L501.16,390.906L506.92,390.906L506.92,449.146L501.16,449.146ZM521,415.558L521,381.946L500.84,381.946L500.84,376.186L513.1,376.186C524.973,376.186 525.382,376.206 526.056,376.834C526.439,377.191 526.83,377.803 526.924,378.194C527.019,378.586 527.057,394.674 527.008,413.946L526.92,448.986L521,449.17L521,415.558ZM535.238,447.306C535.438,445.36 539.878,389.394 539.879,388.795C539.879,388.602 540.468,387.536 541.186,386.425L542.492,384.404L541.938,383.175L541.383,381.946L534.44,381.946L534.44,376.168L543.528,376.346L544.384,377.985C544.855,378.887 545.311,379.823 545.397,380.065C545.503,380.366 546.039,380.018 547.087,378.966C549.573,376.473 550.691,376.026 554.44,376.026C557.337,376.026 557.779,376.107 559.103,376.885C560.72,377.836 561.969,379.436 562.803,381.626C563.483,383.413 563.798,397.534 563.847,428.592L563.88,449.158L550.28,448.986L550.096,443.405L557.96,443.225L557.859,415.065C557.799,398.33 557.63,386.235 557.443,385.254C557.264,384.318 556.803,383.253 556.379,382.796C555.359,381.695 553.293,381.159 551.873,381.628C550.604,382.047 548.171,384.617 546.68,387.115L545.639,388.858L543.401,418.602C542.17,434.961 541.163,448.525 541.162,448.745C541.162,449.037 540.335,449.145 538.105,449.145L535.049,449.145L535.238,447.306ZM572.011,447.626C572.116,446.79 573.22,433.146 574.466,417.306L576.729,388.506L577.985,386.487C579.421,384.178 579.431,384.127 578.691,382.875L578.142,381.946L571.24,381.946L571.24,376.168L580.36,376.346L581.217,378.036C581.689,378.966 582.139,379.902 582.219,380.116C582.306,380.35 583.051,379.847 584.082,378.86C586.723,376.33 587.494,376.026 591.265,376.026C594.297,376.026 594.585,376.084 596.057,376.994C596.989,377.57 597.99,378.556 598.528,379.426C600.421,382.487 600.364,381.46 600.581,416.752L600.781,449.159L587.08,448.986L586.988,446.186L586.896,443.386L594.901,443.386L594.73,414.986C594.622,397.161 594.434,386.016 594.225,385.056C593.626,382.304 591.188,380.798 588.674,381.628C587.407,382.046 584.972,384.615 583.49,387.1L582.459,388.826L580.21,418.737C578.973,435.188 577.96,448.76 577.96,448.897C577.96,449.034 576.579,449.146 574.89,449.146L571.82,449.146L572.011,447.626ZM611.56,449.147L611.56,381.946L608.04,381.946L608.04,376.143L619.64,376.244L631.24,376.346L633.104,377.26C634.308,377.852 635.299,378.634 635.907,379.473C637.867,382.179 637.8,380.869 637.8,416.564L637.8,449.146L632.04,449.146L632.033,417.546C632.026,387.076 632.004,385.897 631.412,384.592C630.32,382.187 629.56,381.948 623,381.947L617.32,381.947L617.32,449.147L611.56,449.147ZM75.24,414.906L75.24,381.946L70.12,381.946L70.12,376.186L74.717,376.186C78.883,376.186 79.393,376.248 80.157,376.849L81,377.512L81,414.906L75.24,414.906ZM93.8,414.906L93.8,381.946L88.68,381.946L88.68,376.186L93.425,376.186C97.933,376.186 98.202,376.221 98.837,376.906C99.492,377.612 99.509,377.971 99.738,396.266L99.97,414.906L93.8,414.906ZM278.12,414.906L278.12,381.946L273,381.946L273,376.186L277.765,376.186C281.979,376.186 282.617,376.256 283.285,376.797L284.04,377.409L284.128,396.157L284.215,414.906L278.12,414.906ZM407.4,414.906L407.4,381.946L402.28,381.946L402.28,376.186L407.095,376.186C411.78,376.186 411.931,376.207 412.695,376.971L413.48,377.756L413.48,414.906L407.4,414.906ZM460.52,349.946L460.52,181.946L423.4,181.946L423.4,156.026L453.885,156.026C488.46,156.026 485.649,155.8 487.64,158.729L488.68,160.258L488.68,349.946L460.52,349.946ZM4.734,328.612C4.616,328.495 4.52,193.786 4.52,193.786L32.36,193.786L32.36,328.826C32.36,328.826 4.851,328.73 4.734,328.612ZM49.534,328.612C49.416,328.495 49.32,181.946 49.32,181.946L3.88,181.946L3.88,156.017L74.17,156.186L75.313,157.057C75.941,157.536 76.758,158.554 77.128,159.318L77.8,160.708L77.8,328.826C77.8,328.826 49.651,328.73 49.534,328.612ZM95.393,324.266C95.389,321.758 95.176,291.41 94.92,256.826C94.664,222.242 94.452,191.251 94.448,187.957L94.44,181.968L87.88,181.786L87.88,156.186L118.331,156.186L119.473,157.057C120.101,157.536 120.899,158.544 121.247,159.297C121.86,160.624 121.896,162.137 122.415,208.974C122.71,235.544 123.018,257.35 123.1,257.431C123.181,257.513 126.45,256.726 130.364,255.683L137.48,253.786L137.477,245.706C137.475,241.262 137.44,225.098 137.397,209.786L137.32,181.946L131.56,181.946L131.56,156.026C131.56,156.026 160.929,155.987 162.641,157.837C164.478,159.822 164.352,155.912 164.459,214.213C164.568,273.914 164.737,269.087 162.505,270.129C161.941,270.392 152.912,272.96 142.44,275.837L123.4,281.068L123.232,302.69L138.196,302.472C158.001,302.185 160.729,301.829 167.071,298.702C169.896,297.309 170.826,296.644 172.999,294.458C177.01,290.424 178.496,287.075 179.221,280.438C179.445,278.389 179.56,261.086 179.56,229.638L179.56,181.946L173.793,181.946L173.96,156.186L204.091,156.186L205.278,157.091C205.931,157.59 206.826,158.541 207.265,159.206L208.065,160.415L207.944,220.86C207.818,283.776 207.827,283.353 206.426,290.827C203.744,305.132 195.695,316.032 183.4,322.007C178.13,324.569 170.942,326.656 163.817,327.693C157.549,328.606 149.86,328.816 122.52,328.821L95.4,328.826L95.393,324.266L95.393,324.266ZM250.92,328.825L250.92,181.946L217.32,181.946L217.32,156.026C217.32,156.026 285.288,155.813 287.24,158.566L288.2,159.92L288.2,181.786L279.4,181.964L279.4,328.825L250.92,328.825ZM303.722,328.832L303.72,181.946L296.36,181.946L296.36,156.026C296.36,156.026 355.743,156.147 357.64,156.379C368.659,157.723 374.865,163.804 376.537,174.895C376.927,177.481 377.002,328.825 377.002,328.825L348.842,328.825C348.842,328.825 348.792,185.354 348.334,184.211C347.451,182.004 347.213,181.945 339.093,181.945L331.883,181.945L331.722,328.665L303.722,328.832ZM535.08,328.826C535.08,328.826 535.047,185.583 534.468,184.309C533.335,181.813 534.398,181.946 515.649,181.946L498.92,181.946L498.92,155.988L522.04,156.107C544.43,156.223 545.242,156.249 547.757,156.911C555.786,159.026 559.94,163.073 562.518,171.291L563.4,174.106L563.569,328.826L535.08,328.826ZM606.12,328.832L606.12,181.946L572.52,181.946L572.52,156.026C572.52,156.026 639.157,156.029 640.344,156.695C641,157.063 641.919,157.956 642.388,158.679L643.24,159.994L643.24,181.946L634.602,181.946L634.44,328.666L606.12,328.832Z" style="fill-rule:nonzero;"/>
    </g>
</svg>
